<svg width="64" height="64" viewBox="0 0 64 64" fill="none" xmlns="http://www.w3.org/2000/svg">
<path d="M32 62C48.5685 62 62 48.5685 62 32C62 15.4315 48.5685 2 32 2C15.4315 2 2 15.4315 2 32C2 48.5685 15.4315 62 32 62Z" fill="#E7DFB1" fill-opacity="0.57"/>
<path d="M32 38.6C35.6451 38.6 38.6 35.6451 38.6 32C38.6 28.3549 35.6451 25.4 32 25.4C28.3549 25.4 25.4 28.3549 25.4 32C25.4 35.6451 28.3549 38.6 32 38.6Z" fill="white"/>
<path d="M32.2 42.6L41.4 56.2C48.2 53.6 53.6 48.2 56.2 41.4L42.6 32.2C42.5 37.9 37.9 42.5 32.2 42.6ZM31.8 21.4L22.6 7.8C15.8 10.4 10.4 15.8 7.8 22.6L21.4 31.8C21.5 26.1 26.1 21.5 31.8 21.4Z" fill="#FFF7C8"/>
<path d="M32 45C24.9 45 19 39.2 19 32C19 24.9 24.8 19 32 19C39.1 19 45 24.8 45 32C45 39.1 39.1 45 32 45ZM32 21.7C26.3 21.7 21.7 26.3 21.7 32C21.7 37.7 26.3 42.3 32 42.3C37.7 42.3 42.3 37.7 42.3 32C42.3 26.3 37.7 21.7 32 21.7Z" fill="#E7DFB1"/>
</svg>
