<svg width="34" height="34" viewBox="0 0 34 34" fill="none" xmlns="http://www.w3.org/2000/svg">
<path d="M33.9 15.9C33.6 9.8 29.9 4.1 24.4 1.5C18.4 -1.2 11.1 -0.0999985 6.1 4.1C1.3 8.1 -0.9 14.6 0.5 20.7C1.8 26.7 6.5 31.6 12.4 33.2C19.5 35.2 26 31.8 30 26C26.4 30.8 20.9 34 14.8 32.9C8.7 31.8 3.7 27.2 2.3 21.2C0.8 14.8 3.8 8.1 9.5 4.8C15.4 1.4 23.7 2.7 27.6 8.5C28.6 9.9 29.3 11.6 29.6 13.3C29.9 14.7 29.8 16.2 30 17.6C30.2 18.9 31.3 20.6 32.8 19.7C34.1 18.9 34 17.2 33.9 15.9C33.9 15.5 34 16.6 33.9 15.9V15.9Z" fill="white"/>
</svg>
