<svg width="300" height="67" viewBox="0 0 300 67" fill="none" xmlns="http://www.w3.org/2000/svg">
<path d="M93.6779 10.4206C92.5777 6.31918 89.3361 3.08865 85.2195 1.99248C77.7577 0.000324827 47.8385 0.000322881 47.8385 0.000322881C47.8385 0.000322881 17.9196 0.000324827 10.458 1.99248C6.34176 3.08865 3.09951 6.31918 1.99937 10.4206C0 17.8551 0 33.3661 0 33.3661C0 33.3661 0 48.8778 1.99937 56.312C3.09951 60.4131 6.34176 63.6439 10.458 64.7398C17.9196 66.7325 47.8385 66.7325 47.8385 66.7325C47.8385 66.7325 77.7577 66.7325 85.2195 64.7398C89.3361 63.6439 92.5777 60.4131 93.6779 56.312C95.6776 48.8778 95.6776 33.3661 95.6776 33.3661C95.6776 33.3661 95.6776 17.8551 93.6779 10.4206Z" fill="#ED1D24"/>
<path d="M38.2709 47.6661L63.1278 33.3665L38.2709 19.0666V47.6661Z" fill="white"/>
<path d="M149.481 54.164C150.005 52.8015 150.268 50.5745 150.268 47.4841V34.4621C150.268 31.4627 150.005 29.2703 149.481 27.8836C148.956 26.4978 148.033 25.8041 146.71 25.8041C145.433 25.8041 144.531 26.4978 144.007 27.8836C143.483 29.2703 143.221 31.4627 143.221 34.4621V47.4841C143.221 50.5745 143.471 52.8015 143.974 54.164C144.474 55.528 145.386 56.2091 146.71 56.2091C148.033 56.2091 148.956 55.528 149.481 54.164ZM138.876 60.709C136.982 59.4378 135.636 57.4601 134.839 54.7776C134.041 52.097 133.642 48.529 133.642 44.0749V38.0074C133.642 33.5081 134.097 29.8945 135.01 27.1678C135.922 24.4409 137.347 22.4531 139.287 21.2028C141.225 19.9534 143.768 19.328 146.916 19.328C150.017 19.328 152.503 19.9648 154.373 21.2368C156.243 22.5092 157.612 24.4983 158.479 27.2019C159.344 29.9064 159.778 33.5081 159.778 38.0074V44.0749C159.778 48.529 159.356 52.1087 158.513 54.8123C157.669 57.5165 156.3 59.4939 154.407 60.743C152.514 61.9927 149.949 62.618 146.71 62.618C143.38 62.618 140.768 61.9811 138.876 60.709" fill="white"/>
<path d="M285.395 26.5855C284.917 27.1765 284.597 28.1423 284.438 29.4825C284.277 30.8235 284.199 32.857 284.199 35.5839V38.5837H291.108V35.5839C291.108 32.903 291.017 30.8692 290.835 29.4825C290.652 28.0966 290.322 27.12 289.844 26.5514C289.364 25.9831 288.623 25.699 287.619 25.699C286.615 25.699 285.874 25.9951 285.395 26.5855V26.5855ZM284.199 44.1741V46.2877C284.199 48.9698 284.277 50.9807 284.438 52.3208C284.597 53.6618 284.927 54.6391 285.43 55.2531C285.932 55.8658 286.706 56.1732 287.756 56.1732C289.169 56.1732 290.14 55.6276 290.664 54.5364C291.188 53.4458 291.473 51.6281 291.519 49.0823L299.661 49.5599C299.707 49.9246 299.73 50.4243 299.73 51.0594C299.73 54.9233 298.67 57.8095 296.548 59.7183C294.428 61.6264 291.427 62.5813 287.551 62.5813C282.899 62.5813 279.637 61.1274 277.767 58.2178C275.896 55.3104 274.961 50.8106 274.961 44.7197V37.4247C274.961 31.1528 275.93 26.5747 277.869 23.6875C279.808 20.8018 283.126 19.3587 287.825 19.3587C291.063 19.3587 293.549 19.9497 295.282 21.1311C297.015 22.3137 298.236 24.1544 298.943 26.6532C299.65 29.1532 300.004 32.6079 300.004 37.0158V44.1741H284.199" fill="white"/>
<path d="M115.884 43.3916L105.142 4.73662H114.515L118.278 22.2575C119.237 26.5762 119.943 30.2574 120.399 33.3016H120.673C120.992 31.1203 121.7 27.4621 122.794 22.3259L126.694 4.73662H136.068L125.189 43.3916V61.936H115.884V43.3916Z" fill="white"/>
<path d="M190.265 20.1456V61.936H182.875L182.054 56.8231H181.849C179.842 60.686 176.831 62.6171 172.817 62.6171C170.035 62.6171 167.983 61.7092 166.659 59.8905C165.336 58.0737 164.676 55.2322 164.676 51.369V20.1456H174.118V50.8234C174.118 52.688 174.323 54.0168 174.734 54.8117C175.144 55.6077 175.828 56.0047 176.786 56.0047C177.607 56.0047 178.394 55.7554 179.146 55.2542C179.899 54.7546 180.458 54.1195 180.823 53.3464V20.1456H190.265Z" fill="white"/>
<path d="M238.697 20.1456V61.936H231.308L230.486 56.8231H230.282C228.273 60.686 225.263 62.6171 221.25 62.6171C218.467 62.6171 216.415 61.7092 215.092 59.8905C213.769 58.0737 213.108 55.2322 213.108 51.369V20.1456H222.55V50.8234C222.55 52.688 222.755 54.0168 223.165 54.8117C223.576 55.6077 224.26 56.0047 225.218 56.0047C226.04 56.0047 226.826 55.7554 227.578 55.2542C228.331 54.7546 228.89 54.1195 229.255 53.3464V20.1456H238.697" fill="white"/>
<path d="M215.922 12.3054H206.549V61.936H197.312V12.3054H187.939V4.73788H215.922V12.3054" fill="white"/>
<path d="M261.293 43.8722C261.293 46.9176 261.166 49.3039 260.915 51.0303C260.665 52.7585 260.243 53.9853 259.65 54.7117C259.057 55.4391 258.257 55.8024 257.256 55.8024C256.479 55.8024 255.761 55.6215 255.1 55.2568C254.438 54.8935 253.903 54.3484 253.492 53.6205V29.8963C253.811 28.7609 254.358 27.8287 255.134 27.1014C255.91 26.3752 256.752 26.0107 257.665 26.0107C258.624 26.0107 259.364 26.3859 259.889 27.1353C260.413 27.8851 260.778 29.1465 260.984 30.9195C261.189 32.6915 261.293 35.214 261.293 38.4862V43.8722ZM269.947 26.8258C269.376 24.1905 268.452 22.2818 267.176 21.0992C265.898 19.9185 264.142 19.3272 261.908 19.3272C260.174 19.3272 258.555 19.8161 257.05 20.7926C255.545 21.7702 254.381 23.0543 253.56 24.6448H253.491L253.492 2.62434H244.392V61.9351H252.192L253.15 57.9818H253.355C254.084 59.3903 255.179 60.5039 256.639 61.322C258.098 62.1399 259.718 62.5491 261.497 62.5491C264.689 62.5491 267.039 61.0829 268.545 58.1519C270.05 55.2199 270.803 50.6419 270.803 44.4148V37.802C270.803 33.1213 270.517 29.4626 269.947 26.8258" fill="white"/>
</svg>
