<svg width="103" height="67" viewBox="0 0 103 67" fill="none" xmlns="http://www.w3.org/2000/svg">
<g clip-path="url(#clip0_5_2)">
<path d="M100.848 10.4623C99.663 6.34393 96.1733 3.10091 91.7414 2.00027C83.7091 2.55723e-07 51.5 -7.7486e-07 51.5 -7.7486e-07C51.5 -7.7486e-07 19.291 2.55723e-07 11.2585 2.00027C6.82703 3.10091 3.33671 6.34393 2.15231 10.4623C0 17.9264 0 33.5 0 33.5C0 33.5 0 49.0733 2.15231 56.5382C3.33671 60.6561 6.82703 63.8991 11.2585 65.0002C19.291 67 51.5 67 51.5 67C51.5 67 83.7091 67 91.7414 65.0002C96.1733 63.8991 99.663 60.6561 100.848 56.5382C103 49.0733 103 33.5 103 33.5C103 33.5 103 17.9264 100.848 10.4623Z" fill="#ED1D24"/>
<path d="M40.9659 47.6395L67.8864 33.5007L40.9659 19.3604V47.6395Z" fill="white"/>
</g>
<defs>
<clipPath id="clip0_5_2">
<rect width="103" height="67" fill="white"/>
</clipPath>
</defs>
</svg>
